<?xml version="1.0" encoding="UTF-8" standalone="no"?>
<!-- Created with Inkscape (http://www.inkscape.org/) -->

<svg
   width="210mm"
   height="297mm"
   viewBox="0 0 210 297"
   version="1.1"
   id="svg1"
   inkscape:version="1.4.2 (f4327f4, 2025-05-13)"
   sodipodi:docname="unicorn_happy_ash.svg"
   xmlns:inkscape="http://www.inkscape.org/namespaces/inkscape"
   xmlns:sodipodi="http://sodipodi.sourceforge.net/DTD/sodipodi-0.dtd"
   xmlns="http://www.w3.org/2000/svg"
   xmlns:svg="http://www.w3.org/2000/svg">
  <sodipodi:namedview
     id="namedview1"
     pagecolor="#ffffff"
     bordercolor="#000000"
     borderopacity="0.25"
     inkscape:showpageshadow="2"
     inkscape:pageopacity="0.0"
     inkscape:pagecheckerboard="0"
     inkscape:deskcolor="#d1d1d1"
     inkscape:document-units="mm"
     inkscape:zoom="0.30878527"
     inkscape:cx="1050.8921"
     inkscape:cy="581.31012"
     inkscape:window-width="2560"
     inkscape:window-height="1009"
     inkscape:window-x="-8"
     inkscape:window-y="-8"
     inkscape:window-maximized="1"
     inkscape:current-layer="layer2" />
  <defs
     id="defs1" />
  <g
     inkscape:label="BG_sky"
     id="layer1"
     style="display:none"
     inkscape:groupmode="layer"
     sodipodi:insensitive="true">
    <rect
       style="opacity:0.99;fill:#e0f5ff;fill-opacity:1;stroke-width:0.594;stroke-linecap:round;stroke-linejoin:round"
       id="rect1"
       width="186"
       height="225.99998"
       x="12"
       y="24" />
  </g>
  <g
     inkscape:label="BG_candy"
     id="g2"
     style="display:none"
     inkscape:groupmode="layer"
     sodipodi:insensitive="true">
    <rect
       style="opacity:0.99;fill:#ffb0d1;fill-opacity:0.300952;stroke-width:0.594;stroke-linecap:round;stroke-linejoin:round"
       id="rect2"
       width="186"
       height="225.99998"
       x="12"
       y="24" />
  </g>
  <g
     inkscape:groupmode="layer"
     id="layer4"
     inkscape:label="BG_lavender"
     style="display:none"
     sodipodi:insensitive="true">
    <rect
       style="display:inline;opacity:0.99;fill:#ffd4ff;fill-opacity:0.300952;stroke-width:0.594;stroke-linecap:round;stroke-linejoin:round"
       id="rect2-8"
       width="186"
       height="225.99998"
       x="12"
       y="24" />
  </g>
  <g
     inkscape:groupmode="layer"
     id="layer5"
     inkscape:label="BG_forest"
     style="display:none"
     sodipodi:insensitive="true">
    <rect
       style="display:inline;opacity:0.99;fill:#d1f1e6;fill-opacity:0.301961;stroke-width:0.594;stroke-linecap:round;stroke-linejoin:round"
       id="rect2-8-7"
       width="186"
       height="225.99998"
       x="12"
       y="24" />
  </g>
  <g
     inkscape:groupmode="layer"
     id="layer6"
     inkscape:label="BG_sand"
     style="display:none"
     sodipodi:insensitive="true">
    <rect
       style="display:inline;opacity:0.99;fill:#f4eaca;fill-opacity:0.301961;stroke-width:0.594;stroke-linecap:round;stroke-linejoin:round"
       id="rect2-8-7-6"
       width="186"
       height="225.99998"
       x="12"
       y="24" />
  </g>
  <g
     inkscape:groupmode="layer"
     id="layer7"
     inkscape:label="BG_ash"
     style="display:inline"
     sodipodi:insensitive="true">
    <rect
       style="display:inline;opacity:0.99;fill:#c3c3c3;fill-opacity:0.301961;stroke-width:0.594;stroke-linecap:round;stroke-linejoin:round"
       id="rect2-8-7-6-2"
       width="186"
       height="225.99998"
       x="12"
       y="24" />
  </g>
  <g
     inkscape:groupmode="layer"
     id="layer2"
     inkscape:label="unicorn">
    <path
       style="fill:#ffffff;fill-opacity:1;stroke:#ffffff;stroke-width:3;stroke-linecap:round;stroke-linejoin:round;stroke-dasharray:none;stroke-opacity:1"
       d="m 55.419951,106.81961 c -5.324924,9.86821 -9.213305,21.04198 -9.566453,32.24858 -0.313239,9.94013 1.960254,18.91505 0.95761,28.8095 -0.837799,8.26769 -5.446805,14.17883 -4.436293,22.15477 1.169207,9.22849 9.676253,16.85465 17.683452,21.59501 13.955501,8.26186 31.619708,9.40354 47.832193,8.92596 17.91444,-0.52772 37.75763,-2.32293 52.18064,-12.95704 6.31864,-4.65875 11.64188,-12.32525 12.17548,-20.15533 0.49749,-7.29977 -4.39787,-12.85522 -4.89015,-20.15534 -0.36207,-5.36933 0.21694,-10.17673 0.5418,-15.54845 1.00225,-16.57299 -0.0922,-34.39459 -7.53723,-49.23664 -5.61732,-11.198311 -15.42361,-20.696168 -26.38021,-26.777814 -8.05193,-4.469359 -17.76726,-6.611606 -26.96,-6.046637 -10.243382,0.629541 -20.557741,4.51716 -28.989208,10.365619 -9.60036,6.65926 -17.064298,16.497433 -22.611631,26.777812 z"
       id="path28-1"
       sodipodi:nodetypes="sssssssssssssss" />
    <path
       style="fill:none;stroke:#000000;stroke-width:3;stroke-linecap:round;stroke-linejoin:round;stroke-dasharray:none;stroke-opacity:1"
       d="m 58.091869,109.52916 c -5.020521,9.30594 -8.68662,19.84304 -9.01958,30.41109 -0.295332,9.37375 1.848194,17.8373 0.902867,27.16796 -0.789905,7.79661 -5.135434,13.37095 -4.182688,20.89243 1.102367,8.70266 9.123103,15.89427 16.672565,20.36455 13.157726,7.79111 29.812147,8.86773 45.097837,8.41736 16.89034,-0.49765 35.59919,-2.19057 49.1977,-12.21876 5.95744,-4.3933 10.97636,-11.62297 11.47947,-19.00691 0.46904,-6.88384 -4.14647,-12.12274 -4.6106,-19.00691 -0.34138,-5.06339 0.20453,-9.59688 0.51082,-14.66251 0.94496,-15.62868 -0.0869,-32.43482 -7.10636,-46.43118 -5.29619,-10.56023 -14.54192,-19.516911 -24.87218,-25.252031 -7.59163,-4.2147 -16.75156,-6.234884 -25.41881,-5.702106 -9.65781,0.593671 -19.382542,4.259776 -27.332018,9.774997 -9.051549,6.279823 -16.088806,15.557403 -21.319023,25.25202 z"
       id="path28"
       sodipodi:nodetypes="sssssssssssssss" />
    <path
       style="fill:#ffffff;fill-opacity:1;stroke:#000000;stroke-width:3;stroke-linecap:round;stroke-linejoin:round;stroke-dasharray:none;stroke-opacity:1"
       d="m 58.204321,111.1505 c -3.703543,-4.25259 -6.20416,-6.81056 -7.765395,-14.111572 -1.29207,-6.042285 -0.874348,-12.81942 1.63989,-18.463852 2.666161,-5.985497 9.965334,-11.606204 9.965334,-11.606204 0,0 5.46771,6.325123 8.620498,11.606204 3.38272,5.666229 8.260496,17.623418 8.260496,17.623418"
       id="path29"
       sodipodi:nodetypes="csscsc" />
    <path
       style="fill:#ffffff;fill-opacity:1;stroke:#000000;stroke-width:3;stroke-linecap:round;stroke-linejoin:round;stroke-dasharray:none;stroke-opacity:1"
       d="m 153.37988,119.60855 c 1.91327,-5.97361 9.37157,-12.24896 10.93281,-19.54999 1.29207,-6.042264 0.87434,-12.819398 -1.63989,-18.46383 -2.66616,-5.985497 -9.85823,-11.820418 -9.85823,-11.820418 0,0 -6.01321,6.037426 -8.72761,11.820418 -2.72728,5.810447 -5.46638,18.46383 -5.46638,18.46383"
       id="path29-6"
       sodipodi:nodetypes="csscsc" />
    <path
       style="fill:#ffffff;fill-opacity:0.99215698;stroke:#000000;stroke-width:3;stroke-linecap:round;stroke-linejoin:round;stroke-dasharray:none;stroke-opacity:1"
       d="m 73.671132,83.462553 c 0,0 8.638772,26.602037 17.765871,36.656197 10.042837,11.06292 24.334287,17.94487 38.264867,23.35138 13.67188,5.30611 43.18463,8.41733 43.18463,8.41733 0,0 -6.07493,-32.39966 -14.48601,-46.15969 -7.40101,-12.107578 -17.14704,-24.632538 -30.33856,-29.867955 -11.51908,-4.571666 -25.02209,-1.631971 -37.171599,0.814545 -6.048373,1.217944 -17.219199,6.788193 -17.219199,6.788193 z"
       id="path31"
       sodipodi:nodetypes="csscsssc" />
    <path
       style="fill:#ffffff;fill-opacity:1;stroke:#000000;stroke-width:3;stroke-linecap:round;stroke-linejoin:round;stroke-dasharray:none;stroke-opacity:1"
       d="M 93.623559,103.55555 C 95.536784,92.422964 107.28954,44.905649 107.28954,44.905649 l 13.93937,59.192991 c 0,0 -9.20451,5.02275 -14.21266,4.88748 -4.81568,-0.13009 -13.392691,-5.43057 -13.392691,-5.43057 z"
       id="path30"
       sodipodi:nodetypes="cccsc" />
  </g>
  <g
     inkscape:groupmode="layer"
     id="layer3"
     inkscape:label="mood"
     sodipodi:insensitive="true">
    <path
       style="display:inline;opacity:0.99;fill:none;stroke:#030303;stroke-width:3;stroke-linecap:round;stroke-linejoin:round;stroke-dasharray:none;stroke-dashoffset:0;stroke-opacity:1"
       d="m 68.350012,163.8746 c 0,0 5.93334,-11.474 18.94099,-7.84447"
       id="path5" />
    <path
       style="display:inline;opacity:0.99;fill:none;stroke:#030303;stroke-width:3;stroke-linecap:round;stroke-linejoin:round;stroke-dasharray:none;stroke-dashoffset:0;stroke-opacity:1"
       d="m 145.62482,164.28718 c 0,0 -5.93334,-11.47399 -18.941,-7.84447"
       id="path5-5" />
    <g
       id="g8-1"
       transform="matrix(4.8790716,0,0,5.0064545,-525.26154,-682.59116)"
       style="display:inline;stroke-width:0.202333">
      <circle
         style="display:inline;opacity:0.99;fill:#000000;stroke:#030303;stroke-width:0.120186;stroke-linecap:round;stroke-linejoin:round;stroke-dasharray:none;stroke-dashoffset:0;stroke-opacity:1"
         id="path7-5"
         cx="124.84661"
         cy="171.87602"
         r="1.5785606" />
      <circle
         style="opacity:0.99;fill:#ffffff;stroke:none;stroke-width:0.120186;stroke-linecap:round;stroke-linejoin:round;stroke-dasharray:none;stroke-dashoffset:0;stroke-opacity:1"
         id="path8-2"
         cx="125.3611"
         cy="171.38492"
         r="0.92375028" />
    </g>
    <g
       id="g8-1-2"
       transform="matrix(4.8790716,0,0,5.0064545,-481.06574,-683.04346)"
       style="display:inline;stroke-width:0.202333">
      <circle
         style="display:inline;opacity:0.99;fill:#000000;stroke:#030303;stroke-width:0.120186;stroke-linecap:round;stroke-linejoin:round;stroke-dasharray:none;stroke-dashoffset:0;stroke-opacity:1"
         id="path7-5-3"
         cx="124.84661"
         cy="171.87602"
         r="1.5785606" />
      <circle
         style="opacity:0.99;fill:#ffffff;stroke:none;stroke-width:0.120186;stroke-linecap:round;stroke-linejoin:round;stroke-dasharray:none;stroke-dashoffset:0;stroke-opacity:1"
         id="path8-2-2"
         cx="125.3611"
         cy="171.38492"
         r="0.92375028" />
    </g>
    <path
       style="display:inline;opacity:0.99;fill:none;stroke:#030303;stroke-width:3;stroke-linecap:round;stroke-linejoin:round;stroke-dasharray:none;stroke-dashoffset:0;stroke-opacity:1"
       d="m 98.640782,192.67628 c 0,0 7.112218,9.28817 15.355898,-0.33193"
       id="path18-0" />
  </g>
</svg>
