<?xml version="1.0" encoding="UTF-8" standalone="no"?>
<!-- Created with Inkscape (http://www.inkscape.org/) -->

<svg
   width="210mm"
   height="297mm"
   viewBox="0 0 210 297"
   version="1.1"
   id="svg1"
   inkscape:version="1.4.2 (f4327f4, 2025-05-13)"
   sodipodi:docname="apple.svg"
   xml:space="preserve"
   xmlns:inkscape="http://www.inkscape.org/namespaces/inkscape"
   xmlns:sodipodi="http://sodipodi.sourceforge.net/DTD/sodipodi-0.dtd"
   xmlns="http://www.w3.org/2000/svg"
   xmlns:svg="http://www.w3.org/2000/svg"><sodipodi:namedview
     id="namedview1"
     pagecolor="#ffffff"
     bordercolor="#000000"
     borderopacity="0.25"
     inkscape:showpageshadow="2"
     inkscape:pageopacity="0.0"
     inkscape:pagecheckerboard="0"
     inkscape:deskcolor="#d1d1d1"
     inkscape:document-units="mm"
     inkscape:zoom="0.84177341"
     inkscape:cx="314.21758"
     inkscape:cy="424.69861"
     inkscape:window-width="2560"
     inkscape:window-height="1009"
     inkscape:window-x="-8"
     inkscape:window-y="-8"
     inkscape:window-maximized="1"
     inkscape:current-layer="layer1" /><defs
     id="defs1" /><path
     style="fill:#ffffff;stroke:#ffffff;stroke-width:3;stroke-linecap:round;stroke-linejoin:round;stroke-dasharray:none;stroke-opacity:1"
     d="m 103.81148,83.615806 c 0,0 -17.958769,-7.901089 -27.32786,-7.133471 -10.418914,0.853634 -21.711126,4.874079 -28.781484,12.780784 -9.083049,10.157447 -13.283741,25.451461 -12.79176,39.234121 0.551714,15.45621 7.649841,31.0526 17.443342,42.80094 8.507461,10.20559 20.421171,19.72905 33.433008,21.10319 7.070859,0.74674 20.059794,-7.43074 20.059794,-7.43074 0,0 13.62108,7.24102 20.93201,6.83628 10.25951,-0.56799 20.63376,-5.64122 28.20002,-12.78085 11.00968,-10.38887 18.91775,-25.30002 21.5134,-40.42302 2.45633,-14.31129 1.16553,-30.81575 -6.39585,-43.098113 -5.06349,-8.224922 -14.36089,-13.972418 -23.54849,-16.34754 -13.88564,-3.589626 -42.73613,4.458419 -42.73613,4.458419 z"
     id="path1-5"
     sodipodi:nodetypes="cssssscsssssc" /><g
     inkscape:groupmode="layer"
     id="layer1"
     inkscape:label="Fruit_apple"><path
       style="fill:#ffffff;stroke:#000000;stroke-width:3;stroke-linecap:round;stroke-linejoin:round;stroke-dasharray:none"
       d="m 103.86291,87.052132 c 0,0 -17.247013,-7.387361 -26.244767,-6.669653 -10.00598,0.79813 -20.850643,4.557166 -27.640778,11.949778 -8.72306,9.497003 -12.757269,23.796603 -12.284784,36.683123 0.529855,14.45124 7.346649,29.03356 16.752006,40.01802 8.170288,9.54203 19.611818,18.44628 32.107947,19.73107 6.790621,0.69818 19.264756,-6.94759 19.264756,-6.94759 0,0 13.08123,6.77021 20.10241,6.39178 9.85289,-0.53106 19.81597,-5.27443 27.08236,-11.94984 10.57333,-9.71339 18.16797,-23.65501 20.66075,-37.79472 2.35898,-13.38077 1.11934,-28.81212 -6.14236,-40.295898 -4.86281,-7.690116 -13.79172,-13.063911 -22.61519,-15.284603 -13.3353,-3.356229 -41.04235,4.168533 -41.04235,4.168533 z"
       id="path1"
       sodipodi:nodetypes="cssssscsssssc" /><path
       style="fill:#ffffff;stroke:#000000;stroke-width:3;stroke-linecap:round;stroke-linejoin:round;stroke-dasharray:none;stroke-opacity:1"
       d="m 104.17076,86.431907 c 0,0 -3.75151,-10.183237 -3.29157,-15.430311 0.39959,-4.558556 1.20215,-10.619633 5.14307,-12.644283 1.71546,-0.881314 5.55452,1.500168 5.55452,1.500168 0,0 -3.62507,8.375553 -4.32018,12.858593 -0.66711,4.302456 0.20573,13.072905 0.20573,13.072905 z"
       id="path2"
       sodipodi:nodetypes="csscscc" /></g></svg>
