<?xml version="1.0" encoding="UTF-8" standalone="no"?>
<!-- Created with Inkscape (http://www.inkscape.org/) -->

<svg
   width="210mm"
   height="297mm"
   viewBox="0 0 210 297"
   version="1.1"
   id="svg1"
   inkscape:version="1.4.2 (f4327f4, 2025-05-13)"
   sodipodi:docname="kiwi.svg"
   xml:space="preserve"
   xmlns:inkscape="http://www.inkscape.org/namespaces/inkscape"
   xmlns:sodipodi="http://sodipodi.sourceforge.net/DTD/sodipodi-0.dtd"
   xmlns="http://www.w3.org/2000/svg"
   xmlns:svg="http://www.w3.org/2000/svg"><sodipodi:namedview
     id="namedview1"
     pagecolor="#ffffff"
     bordercolor="#000000"
     borderopacity="0.25"
     inkscape:showpageshadow="2"
     inkscape:pageopacity="0.0"
     inkscape:pagecheckerboard="0"
     inkscape:deskcolor="#d1d1d1"
     inkscape:document-units="mm"
     inkscape:zoom="1.8205567"
     inkscape:cx="424.87003"
     inkscape:cy="422.6729"
     inkscape:window-width="2560"
     inkscape:window-height="1009"
     inkscape:window-x="-8"
     inkscape:window-y="-8"
     inkscape:window-maximized="1"
     inkscape:current-layer="layer4" /><defs
     id="defs1" /><g
     inkscape:groupmode="layer"
     id="layer4"
     inkscape:label="Fruit_kiwi"><path
       style="fill:#ffffff;fill-opacity:1;stroke:#ffffff;stroke-width:3;stroke-linecap:round;stroke-linejoin:round;stroke-opacity:1"
       d="m 43.558265,85.369929 c 0,0 -3.915677,27.475121 -3.053971,41.228741 0.925369,14.76977 0.409331,31.31557 8.780169,43.51928 7.767298,11.32384 21.336634,19.15184 34.738929,22.1414 22.290758,4.97225 49.963998,5.29373 67.950868,-8.7802 10.21718,-7.99451 11.50415,-23.5603 14.12462,-36.26608 2.90628,-14.0916 2.03479,-28.75833 1.52699,-43.13755 -0.21227,-6.010721 -1.90874,-17.942101 -1.90874,-17.942101"
       id="path8-5"
       sodipodi:nodetypes="caaaaaac" /><ellipse
       style="fill:#ffffff;fill-opacity:1;stroke:#ffffff;stroke-width:3;stroke-linecap:round;stroke-linejoin:round;stroke-opacity:1"
       id="path7-4"
       cx="104.44682"
       cy="84.797318"
       rx="61.270309"
       ry="17.369541" /><path
       style="fill:#ffffff;fill-opacity:1;stroke:#000000;stroke-width:3;stroke-linecap:round;stroke-linejoin:round;stroke-opacity:1"
       d="m 47.562098,87.259457 c 0,0 -3.727739,26.156463 -2.907392,39.249983 0.880955,14.0609 0.389685,29.8126 8.358755,41.4306 7.394498,10.78035 20.312558,18.23265 33.071595,21.07873 21.220894,4.73361 47.565924,5.03966 64.689494,-8.3588 9.7268,-7.61082 10.952,-22.42953 13.44669,-34.52551 2.76679,-13.41528 1.93713,-27.37808 1.4537,-41.06718 -0.20208,-5.722234 -1.81712,-17.080971 -1.81712,-17.080971"
       id="path8"
       sodipodi:nodetypes="caaaaaac" /><ellipse
       style="fill:#ffffff;fill-opacity:1;stroke:#000000;stroke-width:3;stroke-linecap:round;stroke-linejoin:round;stroke-opacity:1"
       id="path7"
       cx="105.52824"
       cy="86.714325"
       rx="58.329571"
       ry="16.535898" /><ellipse
       style="fill:#ffffff;fill-opacity:1;stroke:#000000;stroke-width:3;stroke-linecap:round;stroke-linejoin:round;stroke-opacity:1"
       id="path20"
       cx="104.42033"
       cy="77.388756"
       rx="0.21799649"
       ry="1.5259755" /><ellipse
       style="fill:#ffffff;fill-opacity:1;stroke:#000000;stroke-width:3;stroke-linecap:round;stroke-linejoin:round;stroke-opacity:1"
       id="path20-3"
       cx="104.20492"
       cy="95.160225"
       rx="0.21799649"
       ry="1.5259755" /><ellipse
       style="fill:#ffffff;fill-opacity:1;stroke:#000000;stroke-width:3;stroke-linecap:round;stroke-linejoin:round;stroke-opacity:1"
       id="path20-3-8"
       cx="79.183647"
       cy="129.7314"
       rx="0.21799649"
       ry="1.5259755"
       transform="rotate(-20)" /><ellipse
       style="fill:#ffffff;fill-opacity:1;stroke:#000000;stroke-width:3;stroke-linecap:round;stroke-linejoin:round;stroke-opacity:1"
       id="path20-3-8-7"
       cx="13.475186"
       cy="158.91563"
       rx="0.21799649"
       ry="1.5259755"
       transform="rotate(-50)" /><ellipse
       style="fill:#ffffff;fill-opacity:1;stroke:#000000;stroke-width:3;stroke-linecap:round;stroke-linejoin:round;stroke-opacity:1"
       id="path20-3-8-0"
       cx="135.38147"
       cy="-33.408764"
       rx="0.21799649"
       ry="1.5259755"
       transform="matrix(0.93969262,0.34202014,0.34202014,-0.93969262,0,0)" /><ellipse
       style="fill:#ffffff;fill-opacity:1;stroke:#000000;stroke-width:3;stroke-linecap:round;stroke-linejoin:round;stroke-opacity:1"
       id="path20-3-8-7-0"
       cx="144.66995"
       cy="47.774616"
       rx="0.21799649"
       ry="1.5259755"
       transform="matrix(0.64278761,0.76604444,0.76604444,-0.64278761,0,0)" /><ellipse
       style="fill:#ffffff;fill-opacity:1;stroke:#000000;stroke-width:3;stroke-linecap:round;stroke-linejoin:round;stroke-opacity:1"
       id="path20-3-8-7-8"
       cx="-86.215378"
       cy="140.46693"
       rx="0.21799649"
       ry="1.5259755"
       transform="rotate(-90)" /><ellipse
       style="fill:#ffffff;fill-opacity:1;stroke:#000000;stroke-width:3;stroke-linecap:round;stroke-linejoin:round;stroke-opacity:1"
       id="path20-3-8-9"
       cx="-117.17027"
       cy="58.344696"
       rx="0.21799649"
       ry="1.5259755"
       transform="matrix(-0.93969262,-0.34202014,-0.34202014,0.93969262,0,0)" /><ellipse
       style="fill:#ffffff;fill-opacity:1;stroke:#000000;stroke-width:3;stroke-linecap:round;stroke-linejoin:round;stroke-opacity:1"
       id="path20-3-8-7-3"
       cx="-120.87894"
       cy="-1.0840255"
       rx="0.21799649"
       ry="1.5259755"
       transform="matrix(-0.64278761,-0.76604444,-0.76604444,0.64278761,0,0)" /><ellipse
       style="fill:#ffffff;fill-opacity:1;stroke:#000000;stroke-width:3;stroke-linecap:round;stroke-linejoin:round;stroke-opacity:1"
       id="path20-3-8-0-4"
       cx="-60.920845"
       cy="-104.93724"
       rx="0.21799649"
       ry="1.5259755"
       transform="rotate(160)" /><ellipse
       style="fill:#ffffff;fill-opacity:1;stroke:#000000;stroke-width:3;stroke-linecap:round;stroke-linejoin:round;stroke-opacity:1"
       id="path20-3-8-7-0-4"
       cx="10.431407"
       cy="-112.32201"
       rx="0.21799649"
       ry="1.5259755"
       transform="rotate(130)" /><ellipse
       style="fill:#ffffff;fill-opacity:1;stroke:#000000;stroke-width:3;stroke-linecap:round;stroke-linejoin:round;stroke-opacity:1"
       id="path20-3-8-7-8-6"
       cx="-86.290817"
       cy="-68.461082"
       rx="0.21799649"
       ry="1.5259755"
       transform="matrix(0,-1,-1,0,0,0)" /></g></svg>
