<?xml version="1.0" encoding="UTF-8" standalone="no"?>
<!-- Created with Inkscape (http://www.inkscape.org/) -->

<svg
   width="210mm"
   height="297mm"
   viewBox="0 0 210 297"
   version="1.1"
   id="svg1"
   inkscape:version="1.4.2 (f4327f4, 2025-05-13)"
   sodipodi:docname="pear.svg"
   xml:space="preserve"
   xmlns:inkscape="http://www.inkscape.org/namespaces/inkscape"
   xmlns:sodipodi="http://sodipodi.sourceforge.net/DTD/sodipodi-0.dtd"
   xmlns="http://www.w3.org/2000/svg"
   xmlns:svg="http://www.w3.org/2000/svg"><sodipodi:namedview
     id="namedview1"
     pagecolor="#ffffff"
     bordercolor="#000000"
     borderopacity="0.25"
     inkscape:showpageshadow="2"
     inkscape:pageopacity="0.0"
     inkscape:pagecheckerboard="0"
     inkscape:deskcolor="#d1d1d1"
     inkscape:document-units="mm"
     inkscape:zoom="0.47851114"
     inkscape:cx="233.01443"
     inkscape:cy="460.80432"
     inkscape:window-width="2560"
     inkscape:window-height="1009"
     inkscape:window-x="-8"
     inkscape:window-y="-8"
     inkscape:window-maximized="1"
     inkscape:current-layer="layer4" /><defs
     id="defs1" /><g
     inkscape:groupmode="layer"
     id="layer4"
     inkscape:label="Fruit_pear"><path
       style="fill:#ffffff;fill-opacity:1;stroke:#ffffff;stroke-width:2.99999;stroke-linecap:round;stroke-linejoin:round;stroke-opacity:1"
       d="m 87.313417,60.767451 c -5.057092,2.960525 -9.865552,6.668172 -13.337001,11.280333 -6.926031,9.201913 -8.979643,21.02114 -13.919039,31.339886 -7.021646,14.66874 -20.315074,27.39484 -22.326902,43.42695 -1.454175,11.58818 0.870603,24.67202 7.909923,34.18056 9.084235,12.27077 24.699335,20.49382 40.000858,23.71057 18.162214,3.81814 38.773204,1.55264 55.359134,-6.52429 13.19455,-6.42541 24.80801,-17.90547 30.41474,-31.06716 4.4764,-10.50825 3.18866,-22.93961 0.79204,-34.05915 -2.38479,-11.0646 -10.00746,-20.45072 -14.73058,-30.79739 -5.32206,-11.658687 -6.23599,-25.983968 -15.32893,-35.238747 -5.19933,-5.291873 -13.12984,-7.6005 -20.42184,-9.556894 -6.68971,-1.794805 -13.8721,-2.761181 -20.74879,-1.825735 -4.841265,0.658564 -9.487122,2.686062 -13.663613,5.131067 z"
       id="path1-6"
       sodipodi:nodetypes="aaaaaaaaaaaaaa" /><path
       style="fill:#ffffff;fill-opacity:1;stroke:#ffffff;stroke-width:2.99999;stroke-linecap:round;stroke-linejoin:round;stroke-opacity:1"
       d="m 106.92922,62.680689 c -0.29721,-1.71505 -2.46416,-10.59548 -5.35001,-15.149614 -2.005452,-3.164792 -8.025037,-8.003571 -8.025037,-8.003571 l 5.94447,-4.573468 c 0,0 6.972707,6.029999 8.916707,10.004464 2.48201,5.074438 2.97223,16.578825 2.97223,16.578825 z"
       id="path20-3"
       sodipodi:nodetypes="caccacc" /><path
       style="fill:none;fill-opacity:1;stroke:#000000;stroke-width:3;stroke-linecap:round;stroke-linejoin:round"
       d="m 88.465947,64.068666 c -4.834438,2.830743 -9.431194,6.375856 -12.749803,10.785831 -6.621094,8.798523 -8.58429,20.099616 -13.306216,29.966023 -6.712499,14.02569 -19.420648,26.19392 -21.3439,41.52321 -1.390152,11.08019 0.832272,23.59046 7.561667,32.68217 8.684277,11.73285 23.611881,19.59542 38.239715,22.67116 17.36258,3.65076 37.06611,1.48457 52.9218,-6.23828 12.61362,-6.14374 23.71577,-17.12054 29.07565,-29.70526 4.27932,-10.04758 3.04827,-21.93399 0.75717,-32.56607 -2.2798,-10.57956 -9.56685,-19.55422 -14.08203,-29.44731 -5.08774,-11.1476 -5.96143,-24.844894 -14.65403,-33.693965 -4.97042,-5.059891 -12.55177,-7.267313 -19.52272,-9.137943 -6.39517,-1.716125 -13.26134,-2.640137 -19.83527,-1.745699 -4.628114,0.629694 -9.069423,2.568311 -13.062033,4.906133 z"
       id="path1"
       sodipodi:nodetypes="aaaaaaaaaaaaaa" /><path
       style="fill:#ffffff;fill-opacity:1;stroke:#000000;stroke-width:3;stroke-linecap:round;stroke-linejoin:round;stroke-opacity:1"
       d="m 107.21812,65.898032 c -0.28413,-1.639866 -2.35568,-10.130999 -5.11447,-14.485491 -1.91715,-3.026055 -7.671714,-7.652713 -7.671714,-7.652713 l 5.682754,-4.372978 c 0,0 6.66572,5.765658 8.52412,9.565891 2.37274,4.851988 2.84138,15.852049 2.84138,15.852049 z"
       id="path20"
       sodipodi:nodetypes="caccacc" /></g></svg>
