<?xml version="1.0" encoding="UTF-8" standalone="no"?>
<!-- Created with Inkscape (http://www.inkscape.org/) -->

<svg
   width="210mm"
   height="297mm"
   viewBox="0 0 210 297"
   version="1.1"
   id="svg1"
   inkscape:version="1.4.2 (f4327f4, 2025-05-13)"
   sodipodi:docname="watermelon.svg"
   xml:space="preserve"
   xmlns:inkscape="http://www.inkscape.org/namespaces/inkscape"
   xmlns:sodipodi="http://sodipodi.sourceforge.net/DTD/sodipodi-0.dtd"
   xmlns="http://www.w3.org/2000/svg"
   xmlns:svg="http://www.w3.org/2000/svg"><sodipodi:namedview
     id="namedview1"
     pagecolor="#ffffff"
     bordercolor="#000000"
     borderopacity="0.25"
     inkscape:showpageshadow="2"
     inkscape:pageopacity="0.0"
     inkscape:pagecheckerboard="0"
     inkscape:deskcolor="#d1d1d1"
     inkscape:document-units="mm"
     inkscape:zoom="0.60404192"
     inkscape:cx="514.03717"
     inkscape:cy="373.31846"
     inkscape:window-width="2560"
     inkscape:window-height="1009"
     inkscape:window-x="-8"
     inkscape:window-y="-8"
     inkscape:window-maximized="1"
     inkscape:current-layer="layer4" /><defs
     id="defs1" /><g
     inkscape:groupmode="layer"
     id="layer3"
     inkscape:label="Fruit_watermelon"
     style="display:none"><path
       style="fill:#ffffff;stroke:#ffffff;stroke-width:3;stroke-linecap:round;stroke-linejoin:round;stroke-dasharray:none;stroke-opacity:1"
       d="M 97.280096,202.21568 C 93.379348,198.82942 66.145559,187.47209 56.810109,173.91632 48.276577,161.52501 44.684879,145.13675 45.839356,130.13701 47.074865,114.08448 54.158638,97.879845 64.611584,85.632093 73.125353,75.656464 98.01145,64.830882 98.01145,64.830882 c 0,0 5.02777,-8.572816 9.2642,-8.707505 4.42687,-0.140743 10.23939,8.465614 10.23939,8.465614 0,0 29.11921,14.239176 38.27577,26.848097 9.46377,13.031922 14.34428,30.095192 14.14013,46.198042 -0.18534,14.61906 -4.56183,30.34775 -13.89633,41.60243 -9.62042,11.59942 -39.49477,22.0106 -39.49477,22.0106 0,0 -4.16576,7.28765 -7.8014,7.74002 -4.40308,0.54786 -11.458344,-6.7725 -11.458344,-6.7725 z"
       id="path4-6"
       sodipodi:nodetypes="cssscscssscsc" /><path
       style="fill:#ffffff;stroke:#000000;stroke-width:3;stroke-linecap:round;stroke-linejoin:round;stroke-dasharray:none"
       d="m 97.685623,198.1896 c -3.66333,-3.18107 -29.239539,-13.85018 -38.006794,-26.58452 -8.014138,-11.64044 -11.387231,-27.03564 -10.303017,-41.12645 1.160313,-15.07981 7.812928,-30.30252 17.629656,-41.808104 7.99558,-9.371144 31.366995,-19.540737 31.366995,-19.540737 0,0 4.721747,-8.053337 8.700327,-8.179864 4.15743,-0.132215 9.61617,7.95263 9.61617,7.95263 0,0 27.34687,13.376337 35.94612,25.221207 8.88776,12.242248 13.47122,28.271548 13.2795,43.398628 -0.17406,13.7332 -4.28418,28.50879 -13.05054,39.08148 -9.03487,10.89653 -37.09093,20.67684 -37.09093,20.67684 0,0 -3.91221,6.84604 -7.32657,7.271 -4.13508,0.51466 -10.760917,-6.36211 -10.760917,-6.36211 z"
       id="path4"
       sodipodi:nodetypes="cssscscssscsc" /></g><g
     inkscape:groupmode="layer"
     id="layer4"
     inkscape:label="Fruit_watermelon 1"><path
       style="fill:#ffffff;fill-opacity:1;stroke:#000000;stroke-width:3;stroke-linecap:round;stroke-linejoin:round;stroke-opacity:1"
       d="m 20.587009,175.86562 c 0,0 27.318447,-43.69903 42.050062,-64.82718 14.288309,-20.492354 44.897199,-60.008938 44.897199,-60.008938 0,0 20.90856,28.638491 31.09953,43.145114 18.05351,25.698774 53.2196,77.748814 53.2196,77.748814 0,0 -17.17199,17.5816 -28.03337,22.77711 -17.37285,8.31025 -37.25222,11.58154 -56.50477,12.04559 -18.117426,0.43669 -36.798872,-2.11106 -53.657631,-8.76042 -12.33722,-4.866 -33.07062,-22.12009 -33.07062,-22.12009 z"
       id="path6"
       sodipodi:nodetypes="cacacaaac" /><path
       style="fill:#ffffff;stroke:#000000;stroke-width:3;stroke-linecap:round;stroke-linejoin:round;stroke-opacity:1"
       d="m 34.824064,157.18752 c 0,0 16.260561,14.7282 26.197922,18.84973 12.759745,5.29212 27.082135,6.91251 40.894314,6.70922 15.62089,-0.22991 31.5203,-3.09526 46.0061,-8.94563 11.06533,-4.46895 30.03177,-19.4887 30.03177,-19.4887"
       id="path1"
       sodipodi:nodetypes="caaac" /><circle
       style="fill:#000000;fill-opacity:1;stroke:#000000;stroke-width:3;stroke-linecap:round;stroke-linejoin:round;stroke-opacity:1"
       id="path2"
       cx="58.939594"
       cy="150.95085"
       r="1.403165" /><circle
       style="fill:#000000;fill-opacity:1;stroke:#000000;stroke-width:3;stroke-linecap:round;stroke-linejoin:round;stroke-opacity:1"
       id="path2-8-1"
       cx="107.2508"
       cy="74.157593"
       r="1.403165" /><ellipse
       style="fill:#000000;fill-opacity:1;stroke:#000000;stroke-width:3;stroke-linecap:round;stroke-linejoin:round;stroke-opacity:1"
       id="path3"
       cx="47.001698"
       cy="154.9169"
       rx="0.93544334"
       ry="0.84189904" /><ellipse
       style="fill:#000000;fill-opacity:1;stroke:#000000;stroke-width:3;stroke-linecap:round;stroke-linejoin:round;stroke-opacity:1"
       id="path3-8"
       cx="59.453644"
       cy="133.24966"
       rx="0.93544334"
       ry="0.84189904" /><ellipse
       style="fill:#000000;fill-opacity:1;stroke:#000000;stroke-width:3;stroke-linecap:round;stroke-linejoin:round;stroke-opacity:1"
       id="path3-2"
       cx="112.23163"
       cy="85.483772"
       rx="0.93544334"
       ry="0.84189904" /><ellipse
       style="fill:#000000;fill-opacity:1;stroke:#000000;stroke-width:3;stroke-linecap:round;stroke-linejoin:round;stroke-opacity:1"
       id="path3-23"
       cx="124.10161"
       cy="88.238792"
       rx="0.93544334"
       ry="0.84189904" /><ellipse
       style="fill:#000000;fill-opacity:1;stroke:#000000;stroke-width:3;stroke-linecap:round;stroke-linejoin:round;stroke-opacity:1"
       id="path3-23-8"
       cx="89.695808"
       cy="91.434349"
       rx="0.93544334"
       ry="0.84189904" /></g></svg>
