<?xml version="1.0" encoding="UTF-8" standalone="no"?>
<!-- Created with Inkscape (http://www.inkscape.org/) -->

<svg
   width="210mm"
   height="297mm"
   viewBox="0 0 210 297"
   version="1.1"
   id="svg1"
   inkscape:version="1.4.2 (f4327f4, 2025-05-13)"
   sodipodi:docname="sky.svg"
   xmlns:inkscape="http://www.inkscape.org/namespaces/inkscape"
   xmlns:sodipodi="http://sodipodi.sourceforge.net/DTD/sodipodi-0.dtd"
   xmlns="http://www.w3.org/2000/svg"
   xmlns:svg="http://www.w3.org/2000/svg">
  <sodipodi:namedview
     id="namedview1"
     pagecolor="#ffffff"
     bordercolor="#000000"
     borderopacity="0.25"
     inkscape:showpageshadow="2"
     inkscape:pageopacity="0.0"
     inkscape:pagecheckerboard="0"
     inkscape:deskcolor="#d1d1d1"
     inkscape:document-units="mm"
     inkscape:zoom="0.71891835"
     inkscape:cx="397.12437"
     inkscape:cy="558.47789"
     inkscape:window-width="2560"
     inkscape:window-height="1009"
     inkscape:window-x="-8"
     inkscape:window-y="-8"
     inkscape:window-maximized="1"
     inkscape:current-layer="layer1" />
  <defs
     id="defs1" />
  <g
     inkscape:label="BG_sky"
     id="layer1"
     style="display:inline"
     inkscape:groupmode="layer">
    <rect
       style="opacity:0.99;fill:#e0f5ff;fill-opacity:1;stroke-width:0.594;stroke-linecap:round;stroke-linejoin:round"
       id="rect1"
       width="186"
       height="225.99998"
       x="12"
       y="24" />
  </g>
  <g
     inkscape:label="BG_candy"
     id="g2"
     style="display:none"
     inkscape:groupmode="layer">
    <rect
       style="opacity:0.99;fill:#ffb0d1;fill-opacity:0.300952;stroke-width:0.594;stroke-linecap:round;stroke-linejoin:round"
       id="rect2"
       width="186"
       height="225.99998"
       x="12"
       y="24" />
    <path
       style="display:inline;opacity:0.99;fill:#ffffff;fill-opacity:1;stroke-width:0.594;stroke-linecap:round;stroke-linejoin:round"
       d="M 165.37235,98.017816 C 151.04548,79.937446 135.83192,70.572863 99.463456,76.912176 59.212014,83.928323 34.412142,107.87461 40.897237,142.53482 c 8.446734,45.14438 37.8015,48.36616 72.218113,47.1317 20.15624,-0.72296 53.48783,0.0321 61.32592,-42.1473 3.9205,-21.09752 2.37349,-35.06118 -9.06892,-49.501404 z"
       id="path2-2-1-1-1-90"
       sodipodi:nodetypes="ssssss" />
  </g>
  <g
     inkscape:groupmode="layer"
     id="layer4"
     inkscape:label="BG_lavender"
     style="display:none">
    <rect
       style="display:inline;opacity:0.99;fill:#ffd4ff;fill-opacity:0.300952;stroke-width:0.594;stroke-linecap:round;stroke-linejoin:round"
       id="rect2-8"
       width="186"
       height="225.99998"
       x="12"
       y="24" />
    <path
       style="display:inline;opacity:0.99;fill:#ffffff;fill-opacity:1;stroke-width:0.594;stroke-linecap:round;stroke-linejoin:round"
       d="m 165.37235,166.77915 c -14.32687,18.08037 -29.54043,27.44496 -65.908894,21.10564 -40.251442,-7.01614 -65.051314,-30.96243 -58.566219,-65.62264 8.446734,-45.144379 37.8015,-48.366159 72.218113,-47.131699 20.15624,0.72296 53.48783,-0.0321 61.32592,42.147299 3.9205,21.09752 2.37349,35.06118 -9.06892,49.5014 z"
       id="path2-2-1-1-1-4"
       sodipodi:nodetypes="ssssss" />
  </g>
  <g
     inkscape:groupmode="layer"
     id="layer5"
     inkscape:label="BG_forest"
     style="display:none">
    <rect
       style="display:inline;opacity:0.99;fill:#d1f1e6;fill-opacity:0.301961;stroke-width:0.594;stroke-linecap:round;stroke-linejoin:round"
       id="rect2-8-7"
       width="186"
       height="225.99998"
       x="12"
       y="24" />
    <path
       style="display:inline;opacity:0.99;fill:#ffffff;fill-opacity:1;stroke-width:0.594;stroke-linecap:round;stroke-linejoin:round"
       d="m 50.878649,98.017819 c 14.32687,-18.08037 29.54043,-27.44496 65.908891,-21.10564 40.25145,7.01614 65.05132,30.962431 58.56622,65.622641 -8.44673,45.14438 -37.8015,48.36616 -72.21811,47.1317 -20.156241,-0.72296 -53.487831,0.0321 -61.325921,-42.1473 -3.9205,-21.09752 -2.37349,-35.06118 9.06892,-49.501401 z"
       id="path2-2-1-1-1-9"
       sodipodi:nodetypes="ssssss" />
  </g>
  <g
     inkscape:groupmode="layer"
     id="layer6"
     inkscape:label="BG_sand"
     style="display:none">
    <rect
       style="display:inline;opacity:0.99;fill:#f4eaca;fill-opacity:0.301961;stroke-width:0.594;stroke-linecap:round;stroke-linejoin:round"
       id="rect2-8-7-6"
       width="186"
       height="225.99998"
       x="12"
       y="24" />
    <path
       style="display:inline;opacity:0.99;fill:#ffffff;fill-opacity:1;stroke-width:0.594;stroke-linecap:round;stroke-linejoin:round"
       d="M 165.37235,98.017816 C 151.04548,79.937446 135.83192,70.572863 99.463456,76.912176 59.212014,83.928323 34.412142,107.87461 40.897237,142.53482 c 8.446734,45.14438 37.8015,48.36616 72.218113,47.1317 20.15624,-0.72296 53.48783,0.0321 61.32592,-42.1473 3.9205,-21.09752 2.37349,-35.06118 -9.06892,-49.501404 z"
       id="path2-2-1-1-1-3"
       sodipodi:nodetypes="ssssss" />
  </g>
  <g
     inkscape:groupmode="layer"
     id="layer7"
     inkscape:label="BG_ash"
     style="display:none">
    <rect
       style="display:inline;opacity:0.99;fill:#c3c3c3;fill-opacity:0.301961;stroke-width:0.594;stroke-linecap:round;stroke-linejoin:round"
       id="rect2-8-7-6-2"
       width="186"
       height="225.99998"
       x="12"
       y="24" />
    <path
       style="display:inline;opacity:0.99;fill:#ffffff;fill-opacity:1;stroke-width:0.594;stroke-linecap:round;stroke-linejoin:round"
       d="M 165.37235,98.017816 C 151.04548,79.937446 135.83192,70.572863 99.463456,76.912176 59.212014,83.928323 34.412142,107.87461 40.897237,142.53482 c 8.446734,45.14438 37.8015,48.36616 72.218113,47.1317 20.15624,-0.72296 53.48783,0.0321 61.32592,-42.1473 3.9205,-21.09752 2.37349,-35.06118 -9.06892,-49.501404 z"
       id="path2-2-1-1-1"
       sodipodi:nodetypes="ssssss" />
  </g>
</svg>
