<?xml version="1.0" encoding="UTF-8" standalone="no"?>
<svg
   height="24px"
   viewBox="0 -960 960 960"
   width="24px"
   fill="#635bff"
   version="1.1"
   id="svg1"
   sodipodi:docname="star_full.svg"
   inkscape:version="1.4.2 (f4327f4, 2025-05-13)"
   xmlns:inkscape="http://www.inkscape.org/namespaces/inkscape"
   xmlns:sodipodi="http://sodipodi.sourceforge.net/DTD/sodipodi-0.dtd"
   xmlns="http://www.w3.org/2000/svg"
   xmlns:svg="http://www.w3.org/2000/svg">
  <defs
     id="defs1" />
  <sodipodi:namedview
     id="namedview1"
     pagecolor="#ffffff"
     bordercolor="#000000"
     borderopacity="0.25"
     inkscape:showpageshadow="2"
     inkscape:pageopacity="0.0"
     inkscape:pagecheckerboard="0"
     inkscape:deskcolor="#d1d1d1"
     inkscape:zoom="33.625"
     inkscape:cx="12"
     inkscape:cy="12.981413"
     inkscape:window-width="2560"
     inkscape:window-height="1009"
     inkscape:window-x="-8"
     inkscape:window-y="-8"
     inkscape:window-maximized="1"
     inkscape:current-layer="svg1" />
  <path
     d="m305-704 112-145q12-16 28.5-23.5T480-880q18 0 34.5 7.5T543-849l112 145 170 57q26 8 41 29.5t15 47.5q0 12-3.5 24T866-523L756-367l4 164q1 35-23 59t-56 24q-2 0-22-3l-179-50-179 50q-5 2-11 2.5t-11 .5q-32 0-56-24t-23-59l4-165L95-523q-8-11-11.5-23T80-570q0-25 14.5-46.5T135-647l170-57Zm49 69-194 64 124 179-4 191 200-55 200 56-4-192 124-177-194-66-126-165-126 165Zm126 135Z"
     id="path1" />
  <path
     style="fill:#635bff;stroke:none;stroke-width:453.544;stroke-linecap:round;stroke-linejoin:round;fill-opacity:1"
     d="M 240.2974,-189.145 233.15985,-404.46096 120.1487,-598.36431 342.60223,-674.49814 468.69888,-842.23048 640,-667.3606 l 192.71376,78.51302 -115.39032,218.88474 2.3792,197.47212 -235.53904,-34.49812 -237.91821,35.68772 z"
     id="path2" />
</svg>
