<?xml version="1.0" encoding="UTF-8" standalone="no"?>
<!-- Created with Inkscape (http://www.inkscape.org/) -->

<svg
   width="210mm"
   height="297mm"
   viewBox="0 0 210 297"
   version="1.1"
   id="svg1"
   inkscape:version="1.4.2 (f4327f4, 2025-05-13)"
   sodipodi:docname="bear.svg"
   xml:space="preserve"
   xmlns:inkscape="http://www.inkscape.org/namespaces/inkscape"
   xmlns:sodipodi="http://sodipodi.sourceforge.net/DTD/sodipodi-0.dtd"
   xmlns="http://www.w3.org/2000/svg"
   xmlns:svg="http://www.w3.org/2000/svg"><sodipodi:namedview
     id="namedview1"
     pagecolor="#ffffff"
     bordercolor="#000000"
     borderopacity="0.25"
     inkscape:showpageshadow="2"
     inkscape:pageopacity="0.0"
     inkscape:pagecheckerboard="0"
     inkscape:deskcolor="#d1d1d1"
     inkscape:document-units="mm"
     inkscape:zoom="0.93003701"
     inkscape:cx="148.9188"
     inkscape:cy="467.18571"
     inkscape:window-width="2560"
     inkscape:window-height="1009"
     inkscape:window-x="-8"
     inkscape:window-y="-8"
     inkscape:window-maximized="1"
     inkscape:current-layer="layer10" /><defs
     id="defs1" /><g
     inkscape:groupmode="layer"
     id="layer10"
     inkscape:label="Bear"><path
       style="display:inline;fill:#ffffff;fill-opacity:1;stroke-width:0.594;stroke-linecap:round;stroke-linejoin:round"
       d="m 50.878649,100.53839 c 14.32687,-18.080369 28.686969,-24.600083 65.908891,-23.097047 40.82509,1.648533 65.05132,30.962437 58.56622,65.622647 -8.44673,45.14438 -37.8015,48.36616 -72.2181,47.1317 -20.156251,-0.72296 -53.487841,0.0321 -61.325931,-42.1473 -3.9205,-21.09752 -2.37349,-33.06977 9.06892,-47.51 z"
       id="path2-2-1-1-1"
       sodipodi:nodetypes="ssssss" /><path
       style="opacity:0.99;fill:#ffffff;fill-opacity:1;stroke:#000000;stroke-width:3;stroke-linecap:round;stroke-linejoin:round;stroke-dasharray:none;stroke-opacity:1"
       d="m 166.74829,115.25736 c 0,0 15.99743,-8.7707 17.04523,-16.866231 1.28426,-9.922416 -6.29688,-21.246055 -14.88836,-25.711114 -5.99611,-3.116224 -14.97236,-2.474274 -19.99099,2.154487 -5.5044,5.076797 -8.41792,13.131746 -8.41792,13.131746"
       id="path28-3"
       sodipodi:nodetypes="caasc" /><path
       style="opacity:0.99;fill:#ffffff;fill-opacity:1;stroke:#000000;stroke-width:3;stroke-linecap:round;stroke-linejoin:round;stroke-dasharray:none;stroke-opacity:1"
       d="m 46.927001,115.12151 c 0,0 -15.997426,-8.7707 -17.045229,-16.866226 -1.284259,-9.922417 6.296876,-21.246056 14.88836,-25.711115 5.996109,-3.116224 14.972357,-2.474274 19.990987,2.154487 5.504403,5.076797 8.417925,13.131746 8.417925,13.131746"
       id="path28"
       sodipodi:nodetypes="caasc" /><path
       style="opacity:0.99;fill:none;fill-opacity:1;stroke:#000000;stroke-width:3;stroke-linecap:round;stroke-linejoin:round;stroke-dasharray:none;stroke-opacity:1"
       d="m 45.949213,121.48512 c 0,0 7.21291,-25.788981 34.836642,-36.358457 15.906057,-6.086036 38.865895,-3.745577 53.441395,0.93915 29.95743,9.628607 31.49574,26.622157 34.24268,38.102577 4.81519,20.12461 -3.01118,41.9949 -18.21982,52.0703 -13.242,8.77259 -76.642768,11.07162 -91.969743,-4.9249 C 42.953393,155.31733 42.471566,142.14637 45.949213,121.48512 Z"
       id="path1-8"
       sodipodi:nodetypes="csssssc" /></g></svg>
