<?xml version="1.0" encoding="UTF-8" standalone="no"?>
<!-- Created with Inkscape (http://www.inkscape.org/) -->

<svg
   width="210mm"
   height="297mm"
   viewBox="0 0 210 297"
   version="1.1"
   id="svg1"
   inkscape:version="1.4.2 (f4327f4, 2025-05-13)"
   sodipodi:docname="cat.svg"
   xml:space="preserve"
   xmlns:inkscape="http://www.inkscape.org/namespaces/inkscape"
   xmlns:sodipodi="http://sodipodi.sourceforge.net/DTD/sodipodi-0.dtd"
   xmlns="http://www.w3.org/2000/svg"
   xmlns:svg="http://www.w3.org/2000/svg"><sodipodi:namedview
     id="namedview1"
     pagecolor="#ffffff"
     bordercolor="#000000"
     borderopacity="0.25"
     inkscape:showpageshadow="2"
     inkscape:pageopacity="0.0"
     inkscape:pagecheckerboard="0"
     inkscape:deskcolor="#d1d1d1"
     inkscape:document-units="mm"
     inkscape:zoom="0.83447178"
     inkscape:cx="273.82592"
     inkscape:cy="499.11814"
     inkscape:window-width="2560"
     inkscape:window-height="1009"
     inkscape:window-x="-8"
     inkscape:window-y="-8"
     inkscape:window-maximized="1"
     inkscape:current-layer="svg1" /><defs
     id="defs1" /><g
     inkscape:groupmode="layer"
     id="layer10"
     inkscape:label="Animal_cat"><path
       style="display:inline;opacity:1;fill:#ffffff;fill-opacity:1;stroke-width:0.594;stroke-linecap:round;stroke-linejoin:round"
       d="M 163.78484,98.017816 C 149.45797,79.937446 134.24441,70.572863 97.875955,76.912176 57.624513,83.928323 32.824641,107.87461 39.309736,142.53482 c 8.446734,45.14438 37.8015,48.36616 72.218104,47.1317 20.15624,-0.72296 53.48783,0.0321 61.32592,-42.1473 3.9205,-21.09752 2.37349,-35.06118 -9.06892,-49.501404 z"
       id="path2-2-1-1-1"
       sodipodi:nodetypes="ssssss" /><path
       style="opacity:0.99;fill:#ffffff;fill-opacity:1;stroke:#000000;stroke-width:3;stroke-linecap:round;stroke-linejoin:round;stroke-dasharray:none;stroke-opacity:1"
       d="m 49.961922,111.8253 c 0,0 -8.159151,-36.358436 0,-44.54247 8.159119,-8.183987 33.318067,16.467782 33.318067,16.467782"
       id="path2-29"
       sodipodi:nodetypes="csc" /><path
       style="opacity:0.99;fill:#ffffff;fill-opacity:1;stroke:#000000;stroke-width:3;stroke-linecap:round;stroke-linejoin:round;stroke-dasharray:none;stroke-opacity:1"
       d="m 165.20968,109.8408 c 0,0 8.15913,-36.358446 0,-44.542478 -8.15915,-8.183987 -36.26071,18.882744 -36.26071,18.882744"
       id="path2-6"
       sodipodi:nodetypes="csc" /><path
       style="opacity:0.99;fill:none;fill-opacity:1;stroke:#000000;stroke-width:3;stroke-linecap:round;stroke-linejoin:round;stroke-dasharray:none;stroke-opacity:1"
       d="m 45.949213,121.48512 c 0,0 7.21291,-25.788981 34.836642,-36.358457 15.906057,-6.086036 38.865895,-3.745577 53.441395,0.93915 29.95743,9.628607 31.49574,26.622157 34.24268,38.102577 4.81519,20.12461 -3.01118,41.9949 -18.21982,52.0703 -13.242,8.77259 -76.642768,11.07162 -91.969743,-4.9249 C 42.953393,155.31733 42.471566,142.14637 45.949213,121.48512 Z"
       id="path1-8"
       sodipodi:nodetypes="csssssc" /><path
       style="opacity:0.99;fill:none;fill-opacity:0.301961;stroke:#000000;stroke-width:3;stroke-linecap:round;stroke-linejoin:round;stroke-dasharray:none;stroke-opacity:1"
       d="m 28.025889,139.73141 15.783237,1.34163"
       id="path3" /><path
       style="opacity:0.99;fill:none;fill-opacity:0.301961;stroke:#000000;stroke-width:3;stroke-linecap:round;stroke-linejoin:round;stroke-dasharray:none;stroke-opacity:1"
       d="m 30.166003,156.36774 15.515686,-4.02491"
       id="path4" /><path
       style="opacity:0.99;fill:none;fill-opacity:0.301961;stroke:#000000;stroke-width:3;stroke-linecap:round;stroke-linejoin:round;stroke-dasharray:none;stroke-opacity:1"
       d="m 184.25315,140.26806 c -3.47766,1.07332 -14.71319,0.80498 -14.71319,0.80498"
       id="path6" /><path
       style="opacity:0.99;fill:none;fill-opacity:0.301961;stroke:#000000;stroke-width:3;stroke-linecap:round;stroke-linejoin:round;stroke-dasharray:none;stroke-opacity:1"
       d="m 182.11304,156.90437 -14.44567,-5.36652"
       id="path7" /></g></svg>
