<?xml version="1.0" encoding="UTF-8" standalone="no"?>
<!-- Created with Inkscape (http://www.inkscape.org/) -->

<svg
   width="210mm"
   height="297mm"
   viewBox="0 0 210 297"
   version="1.1"
   id="svg1"
   inkscape:version="1.4.2 (f4327f4, 2025-05-13)"
   sodipodi:docname="dog.svg"
   xml:space="preserve"
   xmlns:inkscape="http://www.inkscape.org/namespaces/inkscape"
   xmlns:sodipodi="http://sodipodi.sourceforge.net/DTD/sodipodi-0.dtd"
   xmlns="http://www.w3.org/2000/svg"
   xmlns:svg="http://www.w3.org/2000/svg"><sodipodi:namedview
     id="namedview1"
     pagecolor="#ffffff"
     bordercolor="#000000"
     borderopacity="0.25"
     inkscape:showpageshadow="2"
     inkscape:pageopacity="0.0"
     inkscape:pagecheckerboard="0"
     inkscape:deskcolor="#d1d1d1"
     inkscape:document-units="mm"
     inkscape:zoom="0.83447178"
     inkscape:cx="320.56207"
     inkscape:cy="537.46575"
     inkscape:window-width="2560"
     inkscape:window-height="1009"
     inkscape:window-x="-8"
     inkscape:window-y="-8"
     inkscape:window-maximized="1"
     inkscape:current-layer="layer2"
     showguides="true" /><defs
     id="defs1" /><g
     inkscape:groupmode="layer"
     id="layer2"
     inkscape:label="Dog"><path
       style="display:inline;fill:#ffffff;fill-opacity:1;stroke-width:0.594;stroke-linecap:round;stroke-linejoin:round"
       d="M 163.78484,98.017816 C 149.45797,79.937446 134.24441,70.572863 97.875955,76.912176 57.624513,83.928323 32.824641,107.87461 39.309736,142.53482 c 8.446734,45.14438 37.8015,48.36616 72.218104,47.1317 20.15624,-0.72296 53.48783,0.0321 61.32592,-42.1473 3.9205,-21.09752 2.37349,-35.06118 -9.06892,-49.501404 z"
       id="path2-2-1-1-1"
       sodipodi:nodetypes="ssssss" /><path
       style="fill:#ffffff;stroke:#000000;stroke-width:3;stroke-linecap:round;stroke-linejoin:round;stroke-dasharray:none;stroke-opacity:1;fill-opacity:1"
       d="m 76.795458,89.921386 c 0,0 -5.525508,-8.373928 -12.186643,-9.60063 -6.770356,-1.246826 -14.215094,-3.037876 -21.542033,1.246826 -7.326934,4.284704 -16.15823,19.237618 -17.699458,31.051348 -0.771915,5.91684 -1.512125,13.7442 4.578057,17.30564 6.090177,3.56148 17.528992,2.36137 27.129714,-7.36302 9.600734,-9.72444 6.701791,-25.333673 6.701791,-25.333673"
       id="path28-3"
       sodipodi:nodetypes="cssassc" /><path
       style="fill:#ffffff;stroke:#000000;stroke-width:3;stroke-linecap:round;stroke-linejoin:round;stroke-dasharray:none;stroke-opacity:1;fill-opacity:1"
       d="m 136.99309,89.252651 c 0,0 5.52551,-8.373928 12.18664,-9.60063 6.77036,-1.246826 14.21509,-3.037876 21.54203,1.246826 7.32694,4.284704 16.15823,19.237623 17.69946,31.051353 0.77191,5.91684 1.51213,13.7442 -4.57806,17.30564 -6.09017,3.56148 -17.52899,2.36137 -27.12971,-7.36302 -9.60073,-9.72444 -6.70179,-25.333678 -6.70179,-25.333678"
       id="path28-7-2"
       sodipodi:nodetypes="cssassc" /><path
       style="fill:none;fill-opacity:1;stroke:#000000;stroke-width:3;stroke-linecap:round;stroke-linejoin:round;stroke-dasharray:none;stroke-opacity:1"
       d="m 44.391622,130.70867 c 0,0 -4.037287,8.72752 4.264905,27.36283 9.4943,21.31115 25.520632,24.4266 54.358533,25.69095 15.991,0.7011 36.48648,1.75435 51.24999,-10.63872 18.44089,-15.48001 14.64617,-29.531 15.694,-42.41507"
       id="path1-1"
       sodipodi:nodetypes="csssc" /><path
       style="fill:none;fill-opacity:1;stroke:#000000;stroke-width:3;stroke-linecap:round;stroke-linejoin:round;stroke-dasharray:none;stroke-opacity:1"
       d="m 75.387287,87.269894 c 0,0 7.22548,-6.892174 29.584713,-6.38489 19.71009,0.44718 33.35947,6.10464 33.35947,6.10464"
       id="path2-6"
       sodipodi:nodetypes="csc" /></g></svg>
