<?xml version="1.0" encoding="UTF-8" standalone="no"?>
<!-- Created with Inkscape (http://www.inkscape.org/) -->

<svg
   width="210mm"
   height="297mm"
   viewBox="0 0 210 297"
   version="1.1"
   id="svg1"
   inkscape:version="1.4.2 (f4327f4, 2025-05-13)"
   sodipodi:docname="fox.svg"
   xml:space="preserve"
   xmlns:inkscape="http://www.inkscape.org/namespaces/inkscape"
   xmlns:sodipodi="http://sodipodi.sourceforge.net/DTD/sodipodi-0.dtd"
   xmlns="http://www.w3.org/2000/svg"
   xmlns:svg="http://www.w3.org/2000/svg"><sodipodi:namedview
     id="namedview1"
     pagecolor="#ffffff"
     bordercolor="#000000"
     borderopacity="0.25"
     inkscape:showpageshadow="2"
     inkscape:pageopacity="0.0"
     inkscape:pagecheckerboard="0"
     inkscape:deskcolor="#d1d1d1"
     inkscape:document-units="mm"
     inkscape:zoom="0.83447178"
     inkscape:cx="273.82592"
     inkscape:cy="499.11814"
     inkscape:window-width="2560"
     inkscape:window-height="1009"
     inkscape:window-x="-8"
     inkscape:window-y="-8"
     inkscape:window-maximized="1"
     inkscape:current-layer="layer5" /><defs
     id="defs1" /><g
     inkscape:groupmode="layer"
     id="layer3"
     inkscape:label="bg"
     sodipodi:insensitive="true"
     style="display:none"><rect
       style="opacity:1;fill:#c2ffff;fill-opacity:1;stroke:none;stroke-width:1;stroke-linecap:round;stroke-linejoin:round"
       id="rect2"
       width="190.2401"
       height="216.23959"
       x="12.04854"
       y="23.780012" /></g><g
     inkscape:groupmode="layer"
     id="layer5"
     inkscape:label="bg 1"
     style="fill:#f9f9f9;fill-opacity:1"><path
       style="opacity:1;fill:#ffffff;fill-opacity:1;stroke:none;stroke-width:3;stroke-linecap:round;stroke-linejoin:round;stroke-dasharray:none"
       d="M 30.438416,161.38702 47.24296,103.68086 70.071773,82.437379 80.852043,79.900842 c 0,0 45.960667,-5.682913 55.803767,0 9.84309,5.682914 30.27988,16.487475 30.27988,28.377488 0,11.89001 18.31061,52.55382 12.68267,58.18176 -5.62793,5.62793 -45.33849,22.49339 -69.34347,23.6475 -39.568985,1.9024 -79.836474,-28.72057 -79.836474,-28.72057 z"
       id="path3"
       sodipodi:nodetypes="ccccssssc" /></g><g
     inkscape:groupmode="layer"
     id="layer6"
     inkscape:label="bg 2" /><g
     inkscape:groupmode="layer"
     id="layer4"
     inkscape:label="Animal_fox"><path
       style="fill:#ffffff;stroke:#000000;stroke-width:3;stroke-linecap:round;stroke-linejoin:round;stroke-opacity:1;stroke-dasharray:none"
       d="m 46.893959,120.15379 c 0,0 -4.708604,-15.91089 0,-33.54971 4.708602,-17.638909 7.840175,-23.194909 7.840175,-23.194909 0,0 24.110628,1.894412 34.531499,20.011792"
       id="path1" /><path
       style="fill:#ffffff;stroke:#000000;stroke-width:3;stroke-linecap:round;stroke-linejoin:round;stroke-dasharray:none;stroke-opacity:1"
       d="m 166.6522,120.38321 c 0,0 4.70861,-15.91089 0,-33.549705 -4.7086,-17.638909 -7.84018,-23.194909 -7.84018,-23.194909 0,0 -24.11062,1.894412 -34.53149,20.011792"
       id="path1-3" /><path
       style="fill:#ffffff;stroke:#000000;stroke-width:3;stroke-linecap:round;stroke-linejoin:round;stroke-opacity:1;stroke-dasharray:none"
       d="m 38.111982,158.92737 9.284409,-35.82783 c 0,0 5.158022,-39.244886 41.986222,-39.244886 36.828187,0 34.558667,0.103482 34.558667,0.103482 0,0 32.0822,-1.073951 41.57356,34.481684 9.49139,35.55561 10.00655,43.59392 10.00655,43.59392 0,0 -31.70601,23.19912 -67.43313,23.19912 -35.727088,0 -69.976278,-26.30561 -69.976278,-26.30561 z"
       id="path2"
       sodipodi:nodetypes="ccscscscc" /></g></svg>
