<?xml version="1.0" encoding="UTF-8" standalone="no"?>
<!-- Created with Inkscape (http://www.inkscape.org/) -->

<svg
   width="210mm"
   height="297mm"
   viewBox="0 0 210 297"
   version="1.1"
   id="svg1"
   inkscape:version="1.4.2 (f4327f4, 2025-05-13)"
   sodipodi:docname="monkey.svg"
   xml:space="preserve"
   xmlns:inkscape="http://www.inkscape.org/namespaces/inkscape"
   xmlns:sodipodi="http://sodipodi.sourceforge.net/DTD/sodipodi-0.dtd"
   xmlns="http://www.w3.org/2000/svg"
   xmlns:svg="http://www.w3.org/2000/svg"><sodipodi:namedview
     id="namedview1"
     pagecolor="#ffffff"
     bordercolor="#000000"
     borderopacity="0.25"
     inkscape:showpageshadow="2"
     inkscape:pageopacity="0.0"
     inkscape:pagecheckerboard="0"
     inkscape:deskcolor="#d1d1d1"
     inkscape:document-units="mm"
     inkscape:zoom="1.6689436"
     inkscape:cx="440.69795"
     inkscape:cy="464.06602"
     inkscape:window-width="2560"
     inkscape:window-height="1009"
     inkscape:window-x="-8"
     inkscape:window-y="-8"
     inkscape:window-maximized="1"
     inkscape:current-layer="layer4" /><defs
     id="defs1" /><g
     inkscape:groupmode="layer"
     id="layer4"
     inkscape:label="Animal_monkey"><path
       style="display:inline;fill:#ffffff;fill-opacity:1;stroke-width:0.594;stroke-linecap:round;stroke-linejoin:round"
       d="m 50.878649,100.53839 c 14.32687,-18.080369 28.686969,-24.600083 65.908891,-23.097047 40.82509,1.648533 65.05132,30.962437 58.56622,65.622647 -8.44673,45.14438 -37.8015,48.36616 -72.2181,47.1317 -20.156251,-0.72296 -53.487841,0.0321 -61.325931,-42.1473 -3.9205,-21.09752 -2.37349,-33.06977 9.06892,-47.51 z"
       id="path2-2-1-1-1"
       sodipodi:nodetypes="ssssss" /><path
       style="fill:#e6e6e6;fill-opacity:1;stroke:none;stroke-width:3;stroke-linecap:round;stroke-linejoin:round;stroke-dasharray:none;stroke-opacity:1"
       d="m 45.49909,149.65555 c 0,0 0.6251,-6.82705 3.170669,-8.40227 2.213326,-1.36963 7.768137,0.79266 7.768137,0.79266 0,0 -3.435471,-8.05848 -1.902399,-17.1216 1.606054,-9.49456 7.035278,-20.89295 16.170407,-23.93855 10.683775,-3.561909 18.80653,0.26398 25.682416,5.7072 7.48285,5.92372 10.30468,16.32894 10.30468,16.32894 0,0 2.05655,-9.74925 8.71933,-15.6948 7.73413,-6.90158 21.49268,-9.2503 30.75549,-4.59747 7.60549,3.82033 10.72848,12.48418 12.68267,20.76787 2.04808,8.68168 -2.06094,18.07281 -2.06094,18.07281 0,0 6.10895,-1.76716 8.40228,-0.15853 2.01113,1.41068 2.378,6.97547 2.378,6.97547 l 2.378,-11.73147 -3.8048,-23.78001 -8.71934,-15.219213 -19.18255,-11.572941 -27.58481,-5.390134 -22.828815,1.743866 -18.072812,7.451072 -14.268008,12.99974 -9.829069,16.01187 -2.060935,17.43868 z"
       id="path4"
       sodipodi:nodetypes="cscssscssscscccccccccccc" /><path
       style="fill:#e6e6e6;fill-opacity:1;stroke:#000000;stroke-width:3;stroke-linecap:round;stroke-linejoin:round;stroke-dasharray:none;stroke-opacity:1"
       d="m 168.73244,150.53801 c 0,0 21.97261,6.27683 21.97261,-12.83632 0,-19.11311 -20.09375,-13.47995 -20.09375,-13.47995"
       id="path2-0"
       sodipodi:nodetypes="csc" /><path
       style="fill:#e6e6e6;fill-opacity:1;stroke:#000000;stroke-width:3;stroke-linecap:round;stroke-linejoin:round;stroke-dasharray:none;stroke-opacity:1"
       d="m 45.902059,153.00575 c 0,0 -24.985179,7.1149 -24.985179,-14.55017 0,-21.66502 22.84872,-15.27975 22.84872,-15.27975"
       id="path2"
       sodipodi:nodetypes="csc" /><path
       style="opacity:0.99;fill:none;fill-opacity:1;stroke:#000000;stroke-width:3;stroke-linecap:round;stroke-linejoin:round;stroke-dasharray:none;stroke-opacity:1"
       d="m 45.949213,121.18338 c 0,0 7.21291,-25.788985 34.836642,-36.358461 15.906057,-6.086036 38.865895,-3.745577 53.441395,0.93915 29.95743,9.628607 31.49574,26.622161 34.24268,38.102581 4.81519,20.12461 -3.01118,41.9949 -18.21982,52.0703 -13.242,8.77259 -76.642768,11.07162 -91.969743,-4.9249 C 42.953393,155.01559 42.471566,141.84463 45.949213,121.18338 Z"
       id="path1-8"
       sodipodi:nodetypes="csssssc" /></g></svg>
