<?xml version="1.0" encoding="UTF-8" standalone="no"?>
<!-- Created with Inkscape (http://www.inkscape.org/) -->

<svg
   width="210mm"
   height="297mm"
   viewBox="0 0 210 297"
   version="1.1"
   id="svg1"
   inkscape:version="1.4.2 (f4327f4, 2025-05-13)"
   sodipodi:docname="penguin.svg"
   xml:space="preserve"
   xmlns:inkscape="http://www.inkscape.org/namespaces/inkscape"
   xmlns:sodipodi="http://sodipodi.sourceforge.net/DTD/sodipodi-0.dtd"
   xmlns="http://www.w3.org/2000/svg"
   xmlns:svg="http://www.w3.org/2000/svg"><sodipodi:namedview
     id="namedview1"
     pagecolor="#ffffff"
     bordercolor="#000000"
     borderopacity="0.25"
     inkscape:showpageshadow="2"
     inkscape:pageopacity="0.0"
     inkscape:pagecheckerboard="0"
     inkscape:deskcolor="#d1d1d1"
     inkscape:document-units="mm"
     inkscape:zoom="1.6689436"
     inkscape:cx="440.69794"
     inkscape:cy="512.00053"
     inkscape:window-width="2560"
     inkscape:window-height="1009"
     inkscape:window-x="-8"
     inkscape:window-y="-8"
     inkscape:window-maximized="1"
     inkscape:current-layer="layer4" /><defs
     id="defs1" /><g
     inkscape:groupmode="layer"
     id="layer4"
     inkscape:label="Animal_penguin"><path
       style="display:inline;fill:#ffffff;fill-opacity:1;stroke-width:0.594;stroke-linecap:round;stroke-linejoin:round"
       d="m 50.878649,100.53839 c 14.32687,-18.080369 28.686969,-24.600083 65.908891,-23.097047 40.82509,1.648533 65.05132,30.962437 58.56622,65.622647 -8.44673,45.14438 -37.8015,48.36616 -72.2181,47.1317 -20.156251,-0.72296 -53.487841,0.0321 -61.325931,-42.1473 -3.9205,-21.09752 -2.37349,-33.06977 9.06892,-47.51 z"
       id="path2-2-1-1-1"
       sodipodi:nodetypes="ssssss" /><path
       style="fill:#e6e6e6;fill-opacity:1;stroke:none;stroke-width:3;stroke-linecap:round;stroke-linejoin:round;stroke-dasharray:none;stroke-opacity:1"
       d="m 47.084424,156.63102 c 0,0 0.6251,6.01416 3.170669,4.43894 2.213326,-1.36963 -0.330882,-11.55569 0.317067,-17.28015 0.722713,-6.38499 0.369331,-10.75355 3.963337,-18.86547 3.900649,-8.80403 7.035278,-15.81988 16.170407,-18.86548 10.683775,-3.56191 17.538262,-1.00429 24.414148,4.43893 7.482858,5.92372 11.097348,29.32868 11.097348,29.32868 0,0 -3.2701,-9.30398 7.92666,-25.2068 4.07866,-5.79293 14.29823,-11.61641 21.40202,-10.46321 12.83492,2.08356 20.36875,11.35231 23.30441,19.34107 2.84075,7.73048 3.39642,10.8149 3.64626,17.59721 0.24773,6.72489 0.0847,16.78125 2.37801,18.38988 2.01113,1.41068 -2.21947,3.96333 -2.21947,3.96333 l 7.29254,-26.79214 -3.8048,-23.78001 -8.71934,-15.219213 -19.18255,-11.572941 -27.58481,-5.390134 -22.828815,1.743866 -18.072812,7.451072 -14.268008,12.99974 -9.829069,16.01187 -2.060935,17.43868 z"
       id="path4"
       sodipodi:nodetypes="cssssscssssscccccccccccc" /><path
       style="opacity:0.99;fill:none;fill-opacity:1;stroke:#000000;stroke-width:3;stroke-linecap:round;stroke-linejoin:round;stroke-dasharray:none;stroke-opacity:1"
       d="m 45.949213,121.18338 c 0,0 7.21291,-25.788985 34.836642,-36.358461 15.906057,-6.086036 38.865895,-3.745577 53.441395,0.93915 29.95743,9.628607 31.49574,26.622161 34.24268,38.102581 4.81519,20.12461 -3.01118,41.9949 -18.21982,52.0703 -13.242,8.77259 -76.642768,11.07162 -91.969743,-4.9249 C 42.953393,155.01559 42.471566,141.84463 45.949213,121.18338 Z"
       id="path1-8"
       sodipodi:nodetypes="csssssc" /></g></svg>
